<svg width="1024" height="1024" viewBox="0 0 1024 1024" fill="none" xmlns="http://www.w3.org/2000/svg">
<rect width="1024" height="1024" fill="black"/>
<path d="M782 559.498C782 708.611 661.122 829.489 512.009 829.489C362.895 829.489 242 708.611 242 559.498C242 410.384 434.584 195 511.991 195C582.185 195 781.982 410.384 781.982 559.498H782Z" fill="white"/>
<path d="M467.381 506.022C467.381 513.922 460.977 520.327 453.077 520.327C445.177 520.327 438.772 513.922 438.772 506.022C438.772 498.122 445.177 491.717 453.077 491.717C460.977 491.717 467.381 498.122 467.381 506.022Z" fill="black" stroke="white" stroke-width="1.54427"/>
<path d="M584.823 506.022C584.823 513.922 578.418 520.327 570.518 520.327C562.618 520.327 556.214 513.922 556.214 506.022C556.214 498.122 562.618 491.717 570.518 491.717C578.418 491.717 584.823 498.122 584.823 506.022Z" fill="black" stroke="white" stroke-width="1.54427"/>
<path d="M467.389 555.496L467.28 554.862L466.611 555.627C464.324 542.309 484.643 536.556 486.965 550.015C489.287 563.473 496.641 570.404 510.205 570.774L510.184 571.546C510.184 571.546 510.184 571.546 510.184 571.546C510.384 571.551 510.585 571.557 510.786 571.562C517.522 571.754 524.574 571.954 529.73 566.131C533.978 561.341 535.931 554.958 537.721 549.107C537.909 548.494 538.094 547.887 538.281 547.289L538.281 547.288C540.141 541.309 545.749 539.563 550.545 540.879C552.939 541.536 555.06 542.946 556.345 544.911C557.617 546.856 558.107 549.401 557.161 552.442L557.161 552.442C553.812 563.228 550.446 573.658 541.73 581.821C533.075 589.929 521.902 591.445 510.245 591.113L510.244 591.113C499.224 590.809 489.472 587.468 482.003 581.441C474.539 575.418 469.312 566.679 467.389 555.496ZM510.223 591.883V591.883V591.883Z" fill="black" stroke="white" stroke-width="1.54427"/>
</svg>
