<svg width="1024" height="1024" viewBox="0 0 1024 1024" fill="none" xmlns="http://www.w3.org/2000/svg">
<rect width="1024" height="1024" fill="black"/>
<g clip-path="url(#clip0_41_235)">
<path d="M772.655 557.227C772.655 701.182 655.959 817.878 512.005 817.878C368.05 817.878 251.337 701.182 251.337 557.227C251.337 413.273 437.259 205.34 511.988 205.34C579.753 205.34 772.638 413.273 772.638 557.227H772.655Z" fill="white" stroke="white" stroke-width="18.6822" stroke-miterlimit="10"/>
<path d="M451.821 540.72C459.86 540.72 466.376 534.203 466.376 526.164C466.376 518.126 459.86 511.609 451.821 511.609C443.783 511.609 437.266 518.126 437.266 526.164C437.266 534.203 443.783 540.72 451.821 540.72Z" fill="black"/>
<path d="M565.206 540.72C573.245 540.72 579.761 534.203 579.761 526.164C579.761 518.126 573.245 511.609 565.206 511.609C557.167 511.609 550.651 518.126 550.651 526.164C550.651 534.203 557.167 540.72 565.206 540.72Z" fill="black"/>
<path d="M505.535 541.756C507.097 549.908 508.66 558.077 510.222 566.23L512.413 577.643C512.923 580.309 515.402 586.593 514.434 589.175L519.122 583.077C521.483 582.636 521.568 582.483 519.326 582.619C517.712 582.619 516.082 582.619 514.468 582.619C511.224 582.619 507.997 582.636 504.754 582.653C491.642 582.704 491.608 603.084 504.754 603.033C517.203 602.999 537.329 605.258 534.747 586.61C532.42 569.779 528.395 553.016 525.185 536.321C522.722 523.447 503.072 528.899 505.535 541.739V541.756Z" fill="black"/>
<path d="M442.972 601.997C445.384 617.334 452.704 632.449 464.321 642.945C477.432 654.8 492.888 657.891 510.092 658.35C527.297 658.808 544.349 657.263 558.173 645.459C572.593 633.129 578.809 614.48 584.227 596.936C588.116 584.385 568.449 579.001 564.576 591.518C560.704 604.035 556.543 618.59 546.624 628.424C536.706 638.258 523.374 638.326 510.092 637.969C497.524 637.629 486.247 636.118 476.974 626.862C468.72 618.624 464.406 607.959 462.623 596.579C460.601 583.655 440.951 589.14 442.972 601.997Z" fill="black"/>
</g>
<defs>
<clipPath id="clip0_41_235">
<rect width="540" height="631.22" fill="white" transform="translate(242 196)"/>
</clipPath>
</defs>
</svg>
