<svg width="190" height="190" viewBox="0 0 190 190" fill="none" xmlns="http://www.w3.org/2000/svg">
<circle cx="95" cy="95" r="95" fill="#242424"/>
<mask id="mask0_601_244" style="mask-type:alpha" maskUnits="userSpaceOnUse" x="0" y="0" width="190" height="190">
<circle cx="95" cy="95" r="94.5" fill="url(#paint0_linear_601_244)" stroke="black"/>
</mask>
<g mask="url(#mask0_601_244)">
<path d="M53.2143 165.446C41.3452 186.908 14.3253 194.685 -7.13696 182.816C-28.5992 170.947 -36.3783 143.925 -24.5092 122.463C-12.64 101.001 32.2233 85.3294 43.3646 91.4908C53.4678 97.0781 65.0809 143.982 53.2118 165.445L53.2143 165.446Z" fill="white" stroke="white" stroke-width="3.18289" stroke-miterlimit="10"/>
<path d="M28.4426 135.313C29.7916 135.549 31.0767 134.647 31.3129 133.298C31.5491 131.949 30.6471 130.664 29.2981 130.428C27.9491 130.192 26.664 131.094 26.4277 132.443C26.1915 133.792 27.0935 135.077 28.4426 135.313Z" fill="black"/>
<path d="M43.4426 137.313C44.7916 137.549 46.0767 136.647 46.3129 135.298C46.5491 133.949 45.6471 132.664 44.2981 132.428C42.9491 132.192 41.664 133.094 41.4277 134.443C41.1915 135.792 42.0936 137.077 43.4426 137.313Z" fill="black"/>
<path d="M34.6032 137.832C32.2808 139.031 31.4349 142.252 32.1289 144.651C32.8455 147.128 35.6238 148.913 38.1027 147.686C40.5816 146.459 41.4367 142.774 40.7948 140.276C40.1462 137.752 37.3452 135.92 34.9389 137.51C33.4828 138.471 34.8459 140.83 36.3133 139.859C38.4633 138.439 39.0213 144.552 36.7646 145.311C35.5286 145.726 34.7212 144.266 34.635 143.268C34.5375 142.127 34.9094 140.737 35.9799 140.184C37.5357 139.378 36.1613 137.029 34.6055 137.834L34.6032 137.832Z" fill="black"/>
</g>
<circle cx="95" cy="95" r="94.5" stroke="#242424"/>
<path d="M77.675 109L87.5187 80.8164H94.4523L104.277 109H98.0852L95.9562 102.164H85.9953L83.8664 109H77.675ZM90.9172 86.2852L87.3625 97.75H94.5891L91.0344 86.2852H90.9172ZM109.048 85.3672C107.329 85.3672 106.001 84.0195 106.001 82.3984C106.001 80.7773 107.329 79.4297 109.048 79.4297C110.766 79.4297 112.095 80.7773 112.095 82.3984C112.095 84.0195 110.766 85.3672 109.048 85.3672ZM106.196 109V88.0625H111.899V109H106.196Z" fill="white"/>
<defs>
<linearGradient id="paint0_linear_601_244" x1="95" y1="79.5" x2="95" y2="190" gradientUnits="userSpaceOnUse">
<stop offset="0.494792"/>
<stop offset="1" stop-opacity="0"/>
</linearGradient>
</defs>
</svg>
