<svg width="150" height="150" viewBox="0 0 150 150" fill="none" xmlns="http://www.w3.org/2000/svg">
<rect width="150" height="150" fill="#FFD9D9" fill-opacity="0.6"/>
<g clip-path="url(#clip0_563_4662)">
<path d="M115.925 82.8017C115.925 105.403 97.6028 123.725 75.0012 123.725C52.3996 123.725 34.0752 105.403 34.0752 82.8017C34.0752 60.2001 63.2658 27.5537 74.9986 27.5537C85.6381 27.5537 115.922 60.2001 115.922 82.8017H115.925Z" fill="black" stroke="black" stroke-width="2.93319" stroke-miterlimit="10"/>
<path d="M65.5518 80.2086C66.8139 80.2086 67.837 79.1855 67.837 77.9234C67.837 76.6613 66.8139 75.6382 65.5518 75.6382C64.2897 75.6382 63.2666 76.6613 63.2666 77.9234C63.2666 79.1855 64.2897 80.2086 65.5518 80.2086Z" fill="white"/>
<path d="M83.3531 80.2086C84.6152 80.2086 85.6383 79.1855 85.6383 77.9234C85.6383 76.6613 84.6152 75.6382 83.3531 75.6382C82.091 75.6382 81.0679 76.6613 81.0679 77.9234C81.0679 79.1855 82.091 80.2086 83.3531 80.2086Z" fill="white"/>
<path d="M73.9855 80.3724C74.2308 81.6523 74.4761 82.9349 74.7214 84.2149L75.0654 86.0068C75.1454 86.4254 75.5347 87.412 75.3827 87.8174L76.1187 86.8601C76.4894 86.7907 76.5027 86.7667 76.1507 86.7881C75.8974 86.7881 75.6414 86.7881 75.3881 86.7881C74.8788 86.7881 74.3721 86.7907 73.8628 86.7934C71.8043 86.8014 71.7989 90.0013 73.8628 89.9933C75.8174 89.9879 78.9772 90.3426 78.5719 87.4147C78.2066 84.7722 77.5746 82.1403 77.0707 79.5191C76.684 77.4979 73.5988 78.3538 73.9855 80.3697V80.3724Z" fill="white"/>
<path d="M64.161 89.8298C64.5397 92.2377 65.689 94.6109 67.5129 96.2588C69.5715 98.1201 71.998 98.6054 74.6992 98.6774C77.4004 98.7494 80.0776 98.5067 82.2482 96.6535C84.5121 94.7176 85.488 91.7897 86.3387 89.0352C86.9493 87.0646 83.8614 86.2193 83.2535 88.1845C82.6455 90.1498 81.9922 92.435 80.4349 93.9789C78.8777 95.5228 76.7844 95.5335 74.6992 95.4775C72.726 95.4242 70.9554 95.1869 69.4995 93.7336C68.2035 92.4403 67.5262 90.7657 67.2462 88.9792C66.9289 86.9499 63.8437 87.8112 64.161 89.8298Z" fill="white"/>
</g>
<defs>
<clipPath id="clip0_563_4662">
<rect width="84.7826" height="99.1046" fill="white" transform="translate(32.6084 26.0864)"/>
</clipPath>
</defs>
</svg>
