<svg width="390" height="844" viewBox="0 0 390 844" fill="none" xmlns="http://www.w3.org/2000/svg">
<g clip-path="url(#clip0_310_2781)">
<rect width="390" height="844" fill="black"/>
<g filter="url(#filter0_f_310_2781)">
<path d="M444.814 462.728C472.231 468.108 490.486 494.926 480.661 521.081C470.074 549.264 455.347 575.816 436.887 599.833C418.428 623.85 396.558 644.912 372.047 662.393C349.3 678.616 318.688 667.876 306.436 642.765L239.243 505.052C220.92 467.498 253.446 425.18 294.45 433.225L444.814 462.728Z" fill="#EC6828"/>
</g>
<g filter="url(#filter1_f_310_2781)">
<path d="M93.0087 246.472C85.4365 250.129 76.1976 246.97 73.8387 238.898C69.1092 222.716 68.8926 205.442 73.3655 188.984C79.1781 167.598 92.5191 149.03 110.933 136.698C129.348 124.366 151.596 119.099 173.585 121.867C190.506 123.996 206.397 130.773 219.56 141.308C226.125 146.562 225.529 156.308 219.264 161.917L181.928 195.349C177.362 199.438 170.12 198.474 164.039 197.709V197.709C160.329 197.242 156.575 198.13 153.468 200.211C150.362 202.292 148.111 205.424 147.13 209.033V209.033C145.522 214.947 143.657 222.01 138.138 224.676L93.0087 246.472Z" fill="#BEEE4C"/>
</g>
<g filter="url(#filter2_f_310_2781)">
<path d="M8.31452 744.044C-0.0944966 744.044 -7.03976 737.182 -5.6537 728.888C-3.54262 716.255 1.19418 704.146 8.3143 693.366C15.4344 682.585 24.7129 673.476 35.5027 666.575C42.587 662.045 51.625 665.739 54.9258 673.473L74.9507 720.395C77.0053 725.209 74.3806 730.729 71.4959 735.096V735.096V735.096C68.6113 739.464 64.5645 744.044 59.3304 744.044L8.31452 744.044Z" fill="#BFC2EF"/>
</g>
</g>
<defs>
<filter id="filter0_f_310_2781" x="140.01" y="338.231" width="437.341" height="425.868" filterUnits="userSpaceOnUse" color-interpolation-filters="sRGB">
<feFlood flood-opacity="0" result="BackgroundImageFix"/>
<feBlend mode="normal" in="SourceGraphic" in2="BackgroundImageFix" result="shape"/>
<feGaussianBlur stdDeviation="47" result="effect1_foregroundBlur_310_2781"/>
</filter>
<filter id="filter1_f_310_2781" x="41.8555" y="92.8555" width="210.664" height="183.418" filterUnits="userSpaceOnUse" color-interpolation-filters="sRGB">
<feFlood flood-opacity="0" result="BackgroundImageFix"/>
<feBlend mode="normal" in="SourceGraphic" in2="BackgroundImageFix" result="shape"/>
<feGaussianBlur stdDeviation="14.1455" result="effect1_foregroundBlur_310_2781"/>
</filter>
<filter id="filter2_f_310_2781" x="-20.8311" y="649.606" width="111.515" height="109.439" filterUnits="userSpaceOnUse" color-interpolation-filters="sRGB">
<feFlood flood-opacity="0" result="BackgroundImageFix"/>
<feBlend mode="normal" in="SourceGraphic" in2="BackgroundImageFix" result="shape"/>
<feGaussianBlur stdDeviation="7.5" result="effect1_foregroundBlur_310_2781"/>
</filter>
<clipPath id="clip0_310_2781">
<rect width="390" height="844" fill="white"/>
</clipPath>
</defs>
</svg>
